{
  "accessors": [
    {
      "bufferView": 2,
      "componentType": 5126,
      "count": 599,
      "max": [
        -0.2083909958600998,
        0.4259830117225647,
        2.4250590801239014
      ],
      "min": [
        -0.7802829742431641,
        0.10535600036382675,
        0.59095698595047
      ],
      "type": "VEC3"
    },
    {
      "bufferView": 2,
      "byteOffset": 7188,
      "componentType": 5126,
      "count": 599,
      "max": [
        0.9791238903999329,
        0.9918405413627625,
        0.9996805787086487
      ],
      "min": [
        -0.9951496124267578,
        -0.9478322863578796,
        -0.9998080134391785
      ],
      "type": "VEC3"
    },
    {
      "bufferView": 1,
      "componentType": 5126,
      "count": 599,
      "max": [
        0.9846500158309937,
        0.9800429940223694
      ],
      "min": [
        0.04437800124287605,
        0.019426999613642693
      ],
      "type": "VEC2"
    },
    {
      "bufferView": 0,
      "componentType": 5125,
      "count": 3354,
      "type": "SCALAR"
    },
    {
      "bufferView": 2,
      "byteOffset": 14376,
      "componentType": 5126,
      "count": 567,
      "max": [
        -0.19934700429439545,
        0.4351170063018799,
        2.434290885925293
      ],
      "min": [
        -0.7861700057983398,
        0.09665700048208237,
        0.5817620158195496
      ],
      "type": "VEC3"
    },
    {
      "bufferView": 2,
      "byteOffset": 21180,
      "componentType": 5126,
      "count": 567,
      "max": [
        0.9957060813903809,
        0.9570080041885376,
        0.9998069405555725
      ],
      "min": [
        -0.9804366230964661,
        -0.9900824427604675,
        -0.9995047450065613
      ],
      "type": "VEC3"
    },
    {
      "bufferView": 1,
      "byteOffset": 4792,
      "componentType": 5126,
      "count": 567,
      "max": [
        0.9846500158309937,
        0.9800429940223694
      ],
      "min": [
        0.04437800124287605,
        0.019426999613642693
      ],
      "type": "VEC2"
    },
    {
      "bufferView": 0,
      "byteOffset": 13416,
      "componentType": 5125,
      "count": 3162,
      "type": "SCALAR"
    },
    {
      "bufferView": 2,
      "byteOffset": 27984,
      "componentType": 5126,
      "count": 3226,
      "max": [
        0.2533310055732727,
        0.3075900077819824,
        2.3858699798583984
      ],
      "min": [
        -0.2873690128326416,
        -0.21656499803066254,
        1.6815170049667358
      ],
      "type": "VEC3"
    },
    {
      "bufferView": 2,
      "byteOffset": 66696,
      "componentType": 5126,
      "count": 3226,
      "max": [
        0.9997147917747498,
        0.9999326467514038,
        0.9998775720596313
      ],
      "min": [
        -0.9996829628944397,
        -0.9993386268615723,
        -0.9999420642852783
      ],
      "type": "VEC3"
    },
    {
      "bufferView": 1,
      "byteOffset": 9328,
      "componentType": 5126,
      "count": 3226,
      "max": [
        0.980434000492096,
        0.9722909927368164
      ],
      "min": [
        0.028491999953985214,
        0.004143999889492989
      ],
      "type": "VEC2"
    },
    {
      "bufferView": 0,
      "byteOffset": 26064,
      "componentType": 5125,
      "count": 17073,
      "type": "SCALAR"
    },
    {
      "bufferView": 2,
      "byteOffset": 105408,
      "componentType": 5126,
      "count": 922,
      "max": [
        0.28675100207328796,
        0.44947099685668945,
        1.7448010444641113
      ],
      "min": [
        -0.41385000944137573,
        -0.4097220003604889,
        0.769474983215332
      ],
      "type": "VEC3"
    },
    {
      "bufferView": 2,
      "byteOffset": 116472,
      "componentType": 5126,
      "count": 922,
      "max": [
        0.9983965158462524,
        0.99579256772995,
        0.9941723942756653
      ],
      "min": [
        -0.9984452128410339,
        -0.9973764419555664,
        -0.9771496653556824
      ],
      "type": "VEC3"
    },
    {
      "bufferView": 1,
      "byteOffset": 35136,
      "componentType": 5126,
      "count": 922,
      "max": [
        0.9808750152587891,
        0.9972169995307922
      ],
      "min": [
        0.0027830000035464764,
        0.0027830000035464764
      ],
      "type": "VEC2"
    },
    {
      "bufferView": 0,
      "byteOffset": 94356,
      "componentType": 5125,
      "count": 4608,
      "type": "SCALAR"
    },
    {
      "bufferView": 2,
      "byteOffset": 127536,
      "componentType": 5126,
      "count": 5058,
      "max": [
        0.17706799507141113,
        0.4258280098438263,
        1.7774640321731567
      ],
      "min": [
        -0.5573440194129944,
        -0.37502700090408325,
        0.2472359985113144
      ],
      "type": "VEC3"
    },
    {
      "bufferView": 2,
      "byteOffset": 188232,
      "componentType": 5126,
      "count": 5058,
      "max": [
        0.9998331665992737,
        0.9999631643295288,
        0.9998904466629028
      ],
      "min": [
        -0.9998192191123962,
        -0.9999600648880005,
        -0.9999414682388306
      ],
      "type": "VEC3"
    },
    {
      "bufferView": 1,
      "byteOffset": 42512,
      "componentType": 5126,
      "count": 5058,
      "max": [
        0.988972008228302,
        0.9817039966583252
      ],
      "min": [
        0.0035459999926388264,
        0.01102800015360117
      ],
      "type": "VEC2"
    },
    {
      "bufferView": 0,
      "byteOffset": 112788,
      "componentType": 5125,
      "count": 26112,
      "type": "SCALAR"
    },
    {
      "bufferView": 2,
      "byteOffset": 248928,
      "componentType": 5126,
      "count": 200,
      "max": [
        0.2590939998626709,
        0.37342000007629395,
        1.619979977607727
      ],
      "min": [
        -0.29381099343299866,
        -0.23398299515247345,
        0.8769789934158325
      ],
      "type": "VEC3"
    },
    {
      "bufferView": 2,
      "byteOffset": 251328,
      "componentType": 5126,
      "count": 200,
      "max": [
        0.9962573647499084,
        0.9936231970787048,
        0.9697754979133606
      ],
      "min": [
        -0.9938704967498779,
        -0.9953916072845459,
        -0.9104557633399963
      ],
      "type": "VEC3"
    },
    {
      "bufferView": 1,
      "byteOffset": 82976,
      "componentType": 5126,
      "count": 200,
      "max": [
        0.920628011226654,
        0.9983109831809998
      ],
      "min": [
        0.001689000055193901,
        0.001689000055193901
      ],
      "type": "VEC2"
    },
    {
      "bufferView": 0,
      "byteOffset": 217236,
      "componentType": 5125,
      "count": 960,
      "type": "SCALAR"
    }
  ],
  "asset": {
    "extras": {
      "author": "Liska_ (https://sketchfab.com/Liska_)",
      "license": "CC-BY-4.0 (http://creativecommons.org/licenses/by/4.0/)",
      "source": "https://sketchfab.com/3d-models/cult-of-the-lamb-aym-vrchat-ready-50828c2437284668a34b1d08b6d1746e",
      "title": "Cult of the Lamb | Aym | VRChat ready"
    },
    "generator": "Sketchfab-14.1.2",
    "version": "2.0"
  },
  "bufferViews": [
    {
      "buffer": 0,
      "byteLength": 221076,
      "name": "floatBufferViews",
      "target": 34963
    },
    {
      "buffer": 0,
      "byteLength": 84576,
      "byteOffset": 221076,
      "byteStride": 8,
      "name": "floatBufferViews",
      "target": 34962
    },
    {
      "buffer": 0,
      "byteLength": 253728,
      "byteOffset": 305652,
      "byteStride": 12,
      "name": "floatBufferViews",
      "target": 34962
    }
  ],
  "buffers": [
    {
      "byteLength": 559380,
      "uri": "scene.bin"
    }
  ],
  "extensionsUsed": [
    "KHR_materials_unlit"
  ],
  "images": [
    {
      "uri": "textures/Aym_head_baseColor.png"
    },
    {
      "uri": "textures/Aym_robe_baseColor.png"
    },
    {
      "uri": "textures/Aym_weapon_baseColor.png"
    },
    {
      "uri": "textures/Body_baseColor.png"
    },
    {
      "uri": "textures/Robe_unders_baseColor.png"
    }
  ],
  "materials": [
    {
      "alphaCutoff": 0.5165730028891516,
      "alphaMode": "MASK",
      "extensions": {
        "KHR_materials_unlit": {}
      },
      "name": "Aym_head",
      "pbrMetallicRoughness": {
        "baseColorTexture": {
          "index": 0
        },
        "metallicFactor": 0.0
      }
    },
    {
      "extensions": {
        "KHR_materials_unlit": {}
      },
      "name": "Aym_robe",
      "pbrMetallicRoughness": {
        "baseColorTexture": {
          "index": 1
        },
        "metallicFactor": 0.0
      }
    },
    {
      "extensions": {
        "KHR_materials_unlit": {}
      },
      "name": "Aym_weapon",
      "pbrMetallicRoughness": {
        "baseColorTexture": {
          "index": 2
        },
        "metallicFactor": 0.0
      }
    },
    {
      "extensions": {
        "KHR_materials_unlit": {}
      },
      "name": "Body",
      "pbrMetallicRoughness": {
        "baseColorTexture": {
          "index": 3
        },
        "metallicFactor": 0.0
      }
    },
    {
      "extensions": {
        "KHR_materials_unlit": {}
      },
      "name": "Line",
      "pbrMetallicRoughness": {
        "baseColorFactor": [
          0.0,
          0.0,
          0.0,
          1.0
        ],
        "metallicFactor": 0.0
      }
    },
    {
      "alphaCutoff": 0.6140971096292864,
      "alphaMode": "MASK",
      "doubleSided": true,
      "extensions": {
        "KHR_materials_unlit": {}
      },
      "name": "Robe_unders",
      "pbrMetallicRoughness": {
        "baseColorTexture": {
          "index": 4
        },
        "metallicFactor": 0.0
      }
    }
  ],
  "meshes": [
    {
      "name": "Object_0",
      "primitives": [
        {
          "attributes": {
            "NORMAL": 1,
            "POSITION": 0,
            "TEXCOORD_0": 2
          },
          "indices": 3,
          "material": 2,
          "mode": 4
        }
      ]
    },
    {
      "name": "Object_1",
      "primitives": [
        {
          "attributes": {
            "NORMAL": 5,
            "POSITION": 4,
            "TEXCOORD_0": 6
          },
          "indices": 7,
          "material": 4,
          "mode": 4
        }
      ]
    },
    {
      "name": "Object_2",
      "primitives": [
        {
          "attributes": {
            "NORMAL": 9,
            "POSITION": 8,
            "TEXCOORD_0": 10
          },
          "indices": 11,
          "material": 0,
          "mode": 4
        }
      ]
    },
    {
      "name": "Object_3",
      "primitives": [
        {
          "attributes": {
            "NORMAL": 13,
            "POSITION": 12,
            "TEXCOORD_0": 14
          },
          "indices": 15,
          "material": 1,
          "mode": 4
        }
      ]
    },
    {
      "name": "Object_4",
      "primitives": [
        {
          "attributes": {
            "NORMAL": 17,
            "POSITION": 16,
            "TEXCOORD_0": 18
          },
          "indices": 19,
          "material": 3,
          "mode": 4
        }
      ]
    },
    {
      "name": "Object_5",
      "primitives": [
        {
          "attributes": {
            "NORMAL": 21,
            "POSITION": 20,
            "TEXCOORD_0": 22
          },
          "indices": 23,
          "material": 5,
          "mode": 4
        }
      ]
    }
  ],
  "nodes": [
    {
      "children": [
        1
      ],
      "matrix": [
        1.0,
        0.0,
        0.0,
        0.0,
        0.0,
        2.220446049250313e-16,
        -1.0,
        0.0,
        0.0,
        1.0,
        2.220446049250313e-16,
        0.0,
        0.0,
        0.0,
        0.0,
        1.0
      ],
      "name": "Sketchfab_model"
    },
    {
      "children": [
        2,
        3,
        4,
        5,
        6,
        7
      ],
      "name": "1.obj.cleaner.materialmerger.gles"
    },
    {
      "mesh": 0,
      "name": "Object_2"
    },
    {
      "mesh": 1,
      "name": "Object_3"
    },
    {
      "mesh": 2,
      "name": "Object_4"
    },
    {
      "mesh": 3,
      "name": "Object_5"
    },
    {
      "mesh": 4,
      "name": "Object_6"
    },
    {
      "mesh": 5,
      "name": "Object_7"
    }
  ],
  "samplers": [
    {
      "magFilter": 9729,
      "minFilter": 9987,
      "wrapS": 10497,
      "wrapT": 10497
    }
  ],
  "scene": 0,
  "scenes": [
    {
      "name": "Sketchfab_Scene",
      "nodes": [
        0
      ]
    }
  ],
  "textures": [
    {
      "sampler": 0,
      "source": 0
    },
    {
      "sampler": 0,
      "source": 1
    },
    {
      "sampler": 0,
      "source": 2
    },
    {
      "sampler": 0,
      "source": 3
    },
    {
      "sampler": 0,
      "source": 4
    }
  ]
}
